<svg xmlns="http://www.w3.org/2000/svg" id="Layer_1" x="0" y="0" version="1.1" viewBox="0 0 52 52" xml:space="preserve"><path fill="#fc0000" d="M38.433 43.792c-3.53 3.94-8.43 6.21-13.45 6.21-1.33 0-2.66-.17-3.95-.49-3.56-.88-6.6-2.82-9.05-5.77-.08-.1-6.86-8.8-.57-19.18.34-.55.72-1.05 1.02-1.43 2.74-3.45 5.42-8.22 3.96-10.33a.994.994 0 0 1 .01-1.13c.23-.35.66-.51 1.06-.4.39.09 3.41 1.04 4.06 7.02.66-1.4 1.24-3.27 1.1-5.4-.21-3.23-1.98-6.3-5.27-9.14a.992.992 0 0 1-.22-1.23c.22-.41.71-.62 1.15-.48.23.06 21.6 6.54 18.36 28.69 1.25-1.34 2.64-3.94 2.3-8.7-.03-.47.26-.89.7-1.03.45-.14.93.05 1.16.45.07.12 6.82 12.07-2.37 22.34z"/></svg>